# xmcd
#
# Track frame offsets: 
#        150
#        20055
#        39235
#        64085
#        85865
#        113230
#        130570
#        161590
#        184480
#        209227
#        221442
#        237472
#
# Disc length: 3787 seconds
#
# Revision: 4
# Processed by: cddbd v1.5.2PL0 Copyright (c) Steve Scherf et al.
# Submitted via: ExactAudioCopy v1.3
#
DISCID=ad0ec90c
DTITLE=Dzem - 2004
DYEAR=2004
DGENRE=Blues
TTITLE0=Gorszy dzień
TTITLE1=Chleb z dzemem
TTITLE2=W drodze do nieba
TTITLE3=Ćma barowa
TTITLE4=Nieproszony
TTITLE5=Wymarzony Świat
TTITLE6=Do kołyski
TTITLE7=Dzień śswistaka
TTITLE8=Szeryfie, co tu sie dzieje?
TTITLE9=Diabelski zart
TTITLE10=66
TTITLE11=W imie ojca
EXTD=
EXTT0=
EXTT1=
EXTT2=
EXTT3=
EXTT4=
EXTT5=
EXTT6=
EXTT7=
EXTT8=
EXTT9=
EXTT10=
EXTT11=
PLAYORDER=
